<svg width="35" height="35" viewBox="0 0 35 35" fill="none" xmlns="http://www.w3.org/2000/svg">
<path d="M25.5459 18.3101C25.5322 15.979 26.5884 14.2222 28.7212 12.9268C27.5283 11.2178 25.7236 10.2778 23.3447 10.0967C21.0923 9.91895 18.6279 11.4092 17.7256 11.4092C16.772 11.4092 14.5913 10.1582 12.8755 10.1582C9.33447 10.2129 5.57129 12.9814 5.57129 18.6143C5.57129 20.2788 5.87549 21.998 6.48389 23.7686C7.29736 26.0996 10.23 31.811 13.2891 31.7188C14.8887 31.6812 16.02 30.584 18.1016 30.584C20.1216 30.584 21.1675 31.7188 22.9517 31.7188C26.0381 31.6743 28.6904 26.4824 29.4629 24.1445C25.3237 22.1929 25.5459 18.4297 25.5459 18.3101ZM25.1836 27.436C24.6948 28.1162 24.2026 28.6528 23.7515 28.998C23.3926 29.2715 23.1157 29.3877 22.9312 29.3945C22.6235 29.3911 22.3262 29.3159 21.7451 29.0938C21.7041 29.0767 21.6597 29.0596 21.6016 29.0391L21.4512 28.981C20.8564 28.752 20.501 28.6289 20.0464 28.5093C19.4106 28.3452 18.7783 28.2563 18.1016 28.2563C17.4111 28.2563 16.7617 28.3418 16.1157 28.5024C15.6406 28.6221 15.2407 28.7554 14.6562 28.9741C14.6323 28.9844 14.3794 29.0801 14.3076 29.1074C14.188 29.1519 14.0957 29.186 14.0103 29.2168C13.6548 29.3398 13.4292 29.3911 13.2275 29.3945C13.2036 29.3945 13.1831 29.3911 13.166 29.3877C13.1284 29.3809 13.0806 29.3672 13.0259 29.3433C12.8721 29.2817 12.6875 29.1689 12.479 29.0083C12.0005 28.6357 11.4741 28.0513 10.9375 27.3027C9.99756 25.9834 9.10889 24.2334 8.68164 23.0063C8.15527 21.4751 7.89551 20.0088 7.89551 18.6108C7.89551 16.5532 8.50391 14.9878 9.5498 13.9248C10.4487 13.0156 11.6587 12.5063 12.8926 12.479C13.0942 12.4824 13.3882 12.5303 13.7607 12.6328C14.0547 12.7114 14.376 12.8174 14.8101 12.9712C14.9399 13.019 15.3877 13.1797 15.4424 13.2002C15.7056 13.2959 15.9038 13.3643 16.0986 13.4258C16.7207 13.624 17.2026 13.7334 17.7256 13.7334C18.2554 13.7334 18.71 13.6206 19.356 13.3984C19.5986 13.3164 20.4805 12.9883 20.6377 12.9336C21.5127 12.6226 22.1587 12.4551 22.7158 12.4141C22.8799 12.4004 23.0269 12.4004 23.167 12.4106C23.9429 12.4722 24.606 12.626 25.1699 12.8823C23.8848 14.3657 23.2217 16.1807 23.2251 18.2964C23.2148 18.7988 23.2559 19.3799 23.3994 20.0669C23.6182 21.1094 24.0352 22.1416 24.6948 23.1089C25.1973 23.8438 25.8193 24.5068 26.5645 25.0845C26.1714 25.8945 25.6895 26.7319 25.1836 27.436ZM21.9536 7.88525C23.6865 5.82764 23.5293 3.95459 23.478 3.28125C21.9468 3.37012 20.1763 4.32373 19.168 5.49609C18.0571 6.75391 17.4043 8.30908 17.5444 10.0625C19.1987 10.189 20.7095 9.33789 21.9536 7.88525Z" fill="white"/>
</svg>
