<svg width="26" height="26" viewBox="0 0 25 29" fill="none" xmlns="http://www.w3.org/2000/svg">
<path d="M20.5459 15.3101C20.5322 12.979 21.5884 11.2222 23.7212 9.92676C22.5283 8.21777 20.7236 7.27783 18.3447 7.09668C16.0923 6.91895 13.6279 8.40918 12.7256 8.40918C11.772 8.40918 9.59131 7.1582 7.87549 7.1582C4.33447 7.21289 0.571289 9.98144 0.571289 15.6143C0.571289 17.2788 0.875488 18.998 1.48389 20.7686C2.29736 23.0996 5.22998 28.811 8.28906 28.7188C9.88867 28.6812 11.02 27.584 13.1016 27.584C15.1216 27.584 16.1675 28.7188 17.9517 28.7188C21.0381 28.6743 23.6904 23.4824 24.4629 21.1445C20.3237 19.1929 20.5459 15.4297 20.5459 15.3101ZM20.1836 24.436C19.6948 25.1162 19.2026 25.6528 18.7515 25.998C18.3926 26.2715 18.1157 26.3877 17.9312 26.3945C17.6235 26.3911 17.3262 26.3159 16.7451 26.0938C16.7041 26.0767 16.6597 26.0596 16.6016 26.0391L16.4512 25.981C15.8564 25.752 15.501 25.6289 15.0464 25.5093C14.4106 25.3452 13.7783 25.2563 13.1016 25.2563C12.4111 25.2563 11.7617 25.3418 11.1157 25.5024C10.6406 25.6221 10.2407 25.7554 9.65625 25.9741C9.63232 25.9844 9.37939 26.0801 9.30762 26.1074C9.18799 26.1519 9.0957 26.186 9.01025 26.2168C8.65479 26.3398 8.4292 26.3911 8.22754 26.3945C8.20361 26.3945 8.18311 26.3911 8.16602 26.3877C8.12842 26.3809 8.08057 26.3672 8.02588 26.3433C7.87207 26.2817 7.6875 26.1689 7.479 26.0083C7.00049 25.6357 6.47412 25.0513 5.9375 24.3027C4.99756 22.9834 4.10889 21.2334 3.68164 20.0063C3.15527 18.4751 2.89551 17.0088 2.89551 15.6108C2.89551 13.5532 3.50391 11.9878 4.5498 10.9248C5.44873 10.0156 6.65869 9.50635 7.89258 9.479C8.09424 9.48242 8.38818 9.53027 8.76074 9.63281C9.05469 9.71143 9.37598 9.81738 9.81006 9.97119C9.93994 10.019 10.3877 10.1797 10.4424 10.2002C10.7056 10.2959 10.9038 10.3643 11.0986 10.4258C11.7207 10.624 12.2026 10.7334 12.7256 10.7334C13.2554 10.7334 13.71 10.6206 14.356 10.3984C14.5986 10.3164 15.4805 9.98828 15.6377 9.93359C16.5127 9.62256 17.1587 9.45508 17.7158 9.41406C17.8799 9.40039 18.0269 9.40039 18.167 9.41064C18.9429 9.47217 19.606 9.62598 20.1699 9.88232C18.8848 11.3657 18.2217 13.1807 18.2251 15.2964C18.2148 15.7988 18.2559 16.3799 18.3994 17.0669C18.6182 18.1094 19.0352 19.1416 19.6948 20.1089C20.1973 20.8438 20.8193 21.5068 21.5645 22.0845C21.1714 22.8945 20.6895 23.7319 20.1836 24.436ZM16.9536 4.88525C18.6865 2.82764 18.5293 0.95459 18.478 0.28125C16.9468 0.370117 15.1763 1.32373 14.168 2.49609C13.0571 3.75391 12.4043 5.30908 12.5444 7.0625C14.1987 7.18896 15.7095 6.33789 16.9536 4.88525Z" fill="white"/>
</svg>
