<svg width="20" height="20" viewBox="0 0 20 20" fill="none" xmlns="http://www.w3.org/2000/svg">
<path d="M18.4922 0.0593262H0.770508C0.344321 0.0593262 0 0.403647 0 0.829834V18.5515C0 18.9777 0.344321 19.322 0.770508 19.322H18.4922C18.9184 19.322 19.2627 18.9777 19.2627 18.5515V0.829834C19.2627 0.403647 18.9184 0.0593262 18.4922 0.0593262ZM16.2673 5.68163H14.7287C13.5224 5.68163 13.2889 6.25469 13.2889 7.09743V8.95388H16.1686L15.793 11.8601H13.2889V19.322H10.2863V11.8625H7.77491V8.95388H10.2863V6.8109C10.2863 4.32361 11.8056 2.96799 14.0257 2.96799C15.0899 2.96799 16.0025 3.04745 16.2698 3.08357V5.68163H16.2673Z" fill="#D5D5D5"/>
</svg>
