<svg width="19" height="19" viewBox="0 0 19 19" fill="none" xmlns="http://www.w3.org/2000/svg">
<path d="M9.49998 6.17469C7.85135 6.17469 6.50594 7.5201 6.50594 9.16873C6.50594 10.8174 7.85135 12.1628 9.49998 12.1628C11.1486 12.1628 12.494 10.8174 12.494 9.16873C12.494 7.5201 11.1486 6.17469 9.49998 6.17469ZM18.4799 9.16873C18.4799 7.92889 18.4911 6.70028 18.4215 5.46268C18.3518 4.02518 18.0239 2.7494 16.9727 1.69823C15.9193 0.644809 14.6458 0.319125 13.2083 0.249496C11.9684 0.179867 10.7398 0.191098 9.50223 0.191098C8.26239 0.191098 7.03377 0.179867 5.79618 0.249496C4.35868 0.319125 3.08289 0.647055 2.03172 1.69823C0.978305 2.75164 0.652621 4.02518 0.582992 5.46268C0.513363 6.70252 0.524594 7.93114 0.524594 9.16873C0.524594 10.4063 0.513363 11.6372 0.582992 12.8748C0.652621 14.3123 0.980551 15.5881 2.03172 16.6392C3.08514 17.6927 4.35868 18.0183 5.79618 18.088C7.03602 18.1576 8.26463 18.1464 9.50223 18.1464C10.7421 18.1464 11.9707 18.1576 13.2083 18.088C14.6458 18.0183 15.9216 17.6904 16.9727 16.6392C18.0262 15.5858 18.3518 14.3123 18.4215 12.8748C18.4933 11.6372 18.4799 10.4086 18.4799 9.16873ZM9.49998 13.7755C6.95067 13.7755 4.89325 11.7181 4.89325 9.16873C4.89325 6.61942 6.95067 4.562 9.49998 4.562C12.0493 4.562 14.1067 6.61942 14.1067 9.16873C14.1067 11.7181 12.0493 13.7755 9.49998 13.7755ZM14.2954 5.4492C13.7002 5.4492 13.2195 4.96854 13.2195 4.37332C13.2195 3.77811 13.7002 3.29745 14.2954 3.29745C14.8906 3.29745 15.3713 3.77811 15.3713 4.37332C15.3715 4.51466 15.3437 4.65464 15.2897 4.78525C15.2357 4.91587 15.1565 5.03454 15.0566 5.13448C14.9566 5.23442 14.8379 5.31366 14.7073 5.36767C14.5767 5.42167 14.4367 5.44938 14.2954 5.4492Z" fill="#D5D5D5"/>
</svg>
