<svg width="254" height="92" viewBox="0 0 254 92" fill="none" xmlns="http://www.w3.org/2000/svg">
<path d="M134.807 37.3508C134.742 35.638 134.439 34.1325 133.897 32.8319C133.354 31.5329 132.637 30.4537 131.744 29.5976C130.85 28.7409 129.83 28.1079 128.682 27.6946C127.534 27.283 126.353 27.0764 125.141 27.0764C122.653 27.0764 120.5 27.9796 118.682 29.7872C116.863 31.5948 115.826 34.116 115.572 37.3508H134.807ZM115.189 45.1512C115.38 48.7044 116.417 51.5259 118.299 53.6191C120.18 55.7117 122.653 56.758 125.715 56.758C127.756 56.758 129.558 56.2987 131.122 55.379C132.685 54.4604 133.69 53.1757 134.137 51.5259H146.96C145.492 56.3463 142.941 60.0569 139.304 62.6565C135.668 65.2577 131.328 66.5572 126.29 66.5572C110.595 66.5572 102.749 58.0586 102.749 41.0613C102.749 37.4462 103.258 34.1801 104.28 31.2621C105.299 28.3452 106.783 25.8394 108.729 23.7462C110.675 21.6531 113.05 20.0521 115.859 18.9417C118.665 17.8329 121.888 17.2772 125.524 17.2772C132.797 17.2772 138.299 19.5934 142.032 24.222C145.764 28.8522 147.63 35.8288 147.63 45.1512H115.189Z" fill="#00070F"/>
<path d="M180.548 42.3927C179.91 43.0274 178.984 43.5344 177.773 43.9148C176.561 44.2957 174.807 44.7089 172.51 45.1513C168.936 45.8506 166.481 46.738 165.141 47.816C163.802 48.8947 163.132 50.4479 163.132 52.4764C163.132 55.9661 165.141 57.709 169.161 57.709C170.754 57.709 172.237 57.4404 173.61 56.9011C174.981 56.3623 176.161 55.6328 177.151 54.7131C178.139 53.7946 178.936 52.7148 179.544 51.4778C180.149 50.2413 180.452 48.9259 180.452 47.5299L180.548 42.3927ZM181.409 65.3202C181.027 64.1161 180.771 62.7201 180.644 61.1345C179.176 62.7842 177.23 64.0997 174.807 65.0824C172.381 66.0645 169.575 66.5573 166.385 66.5573C160.962 66.5573 156.991 65.3679 154.471 62.9898C151.95 60.6111 150.691 57.5193 150.691 53.714C150.691 50.3526 151.233 47.6724 152.318 45.6747C153.402 43.6774 154.902 42.1072 156.816 40.9655C158.73 39.8239 161.01 38.9842 163.658 38.4449C166.305 37.9061 169.192 37.4145 172.318 36.9694C175.443 36.5271 177.549 35.9401 178.634 35.2101C179.718 34.4817 180.261 33.2923 180.261 31.6426C180.261 30.12 179.544 28.9312 178.108 28.0751C176.673 27.2185 174.742 26.7904 172.318 26.7904C169.447 26.7904 167.39 27.4251 166.146 28.6934C164.903 29.9627 164.12 31.6426 163.802 33.7357H152.222C152.285 31.3264 152.684 29.1066 153.419 27.0765C154.151 25.0469 155.332 23.3035 156.959 21.8439C158.586 20.3855 160.707 19.2603 163.323 18.4666C165.938 17.6741 169.127 17.2773 172.892 17.2773C176.592 17.2773 179.735 17.6905 182.318 18.5138C184.902 19.3392 186.975 20.528 188.539 22.0813C190.101 23.6362 191.233 25.5704 191.936 27.8844C192.637 30.2006 192.988 32.8166 192.988 35.7335V65.3202H181.409Z" fill="#00070F"/>
<path d="M224.092 17.2782C222.813 17.2782 221.567 17.344 220.359 17.4701C219.146 17.5961 217.95 17.8976 216.77 18.3689C215.585 18.8458 214.438 19.5309 213.325 20.4188C212.205 21.3067 211.136 22.5398 210.116 24.1293V18.5114H198.444V65.3179H210.882V40.9665C210.882 33.4193 214.681 29.6436 222.272 29.6436C222.901 29.6436 223.524 29.6704 224.152 29.7307V17.2782H224.092Z" fill="#00070F"/>
<path d="M252.512 5.98788V65.3181H240.069V29.9228H229.605V16.8504C231.253 16.7572 232.698 16.5604 233.944 16.2645C235.797 15.82 237.313 15.1349 238.492 14.2146C239.672 13.2993 240.565 12.1538 241.172 10.7891C241.778 9.42931 242.175 7.8289 242.368 5.98788H252.512Z" fill="#00070F"/>
<mask id="mask0" mask-type="alpha" maskUnits="userSpaceOnUse" x="0" y="0" width="80" height="91">
<path d="M36.1114 0.639078C34.8847 0.714165 33.6646 0.89887 32.4721 1.19977C31.3833 1.47436 30.3049 1.79444 29.2194 2.08438C19.1087 4.68998 11.3875 10.4926 5.90469 19.337C0.952197 27.3237 -0.729874 35.9796 0.281243 45.2121C1.15949 53.23 4.78716 60.0312 9.94805 66.0898C14.5378 71.478 19.9468 75.9383 25.8773 79.8116C32.0289 83.8291 38.5796 86.9724 45.6045 89.1494C47.339 89.6865 49.1208 90.012 50.9005 90.3491C51.2809 90.4209 51.6949 90.49 51.9574 90.1036C52.1729 89.7868 52.088 89.4596 51.9447 89.1581C51.7909 88.8353 51.5748 88.5454 51.3449 88.2697C50.165 86.8562 49.3033 85.2618 48.5778 83.5835C47.7232 81.6055 48.0298 79.4241 50.8487 78.6963C58.2005 76.7972 64.292 72.7665 69.2748 67.1306C76.4453 59.0195 79.7962 49.4773 79.2283 38.7222C78.6263 27.3259 73.972 17.7245 65.2855 10.2174C57.7015 3.66396 48.8882 0.548096 39.0576 0.548096C38.0851 0.548096 37.1038 0.578788 36.1114 0.639078Z" fill="white"/>
</mask>
<g mask="url(#mask0)">
<path d="M82.0461 -2.19232L82.0445 38.0727L70.6878 37.9876L70.572 37.987C67.8865 37.987 65.2501 38.7094 62.9412 40.0796L60.1697 41.7255L57.2814 38.4907C57.0487 38.2315 56.7885 37.9958 56.5057 37.7897C55.4367 37.0098 54.1267 36.6914 52.8174 36.892C51.5074 37.0926 50.3541 37.7881 49.5701 38.8508L47.7585 41.3062L45.3139 32.4327C44.885 30.8734 43.6346 29.6786 42.0479 29.3152C40.9001 29.0543 39.7181 29.2506 38.7191 29.8726C37.7201 30.4942 37.0254 31.4654 36.7613 32.6065L34.5566 42.1388L33.1993 36.0846C32.8084 34.3456 31.4996 32.9468 29.7844 32.4355C28.5136 32.0557 27.1723 32.1905 26.0057 32.8153C24.8385 33.4396 23.9856 34.4776 23.6041 35.7399L21.9866 41.093L20.9131 37.8654C20.2389 35.8413 18.3462 34.482 16.2021 34.482H13.2316C11.7094 34.482 10.475 35.7086 10.475 37.2225C10.475 38.7363 11.7094 39.9629 13.2316 39.9629H15.8035L18.9472 49.413C19.5205 51.1323 21.3956 52.0706 23.1278 51.5006C24.1505 51.1641 24.946 50.3496 25.2553 49.3247L28.2771 39.3255L31.2945 52.7809C31.4869 53.6381 32.0029 54.3698 32.7494 54.8412C33.2858 55.1805 33.8956 55.3548 34.5169 55.3548C34.7584 55.3548 35.0026 55.3284 35.2441 55.2747C36.478 55.0007 37.4604 54.0322 37.7471 52.8023L41.1531 38.078L43.0447 44.9422C43.3551 46.0718 44.0905 47.0134 45.1138 47.5939C46.137 48.1732 47.3262 48.3217 48.4625 48.0137C49.4185 47.7539 50.2681 47.1724 50.8547 46.3777L53.6124 42.6392L56.047 45.3648C57.804 47.3297 60.7249 47.778 62.9958 46.4308L65.7673 44.7855C67.2415 43.9102 68.9004 43.4564 70.6453 43.4684L82.0445 43.5536L82.0461 93.1454H-2.75647V-2.19232H82.0461Z" fill="#00BF69"/>
</g>
</svg>
