<svg width="81" height="92" viewBox="0 0 81 92" fill="none" xmlns="http://www.w3.org/2000/svg">
<mask id="mask0" mask-type="alpha" maskUnits="userSpaceOnUse" x="0" y="0" width="80" height="91">
<path d="M36.2327 0.639063C35.0019 0.71415 33.7777 0.898855 32.5812 1.19975C31.4887 1.47434 30.4067 1.79443 29.3175 2.08436C19.1729 4.68996 11.4258 10.4925 5.92447 19.337C0.955335 27.3237 -0.732389 35.9796 0.282127 45.2121C1.16333 53.23 4.80319 60.0312 9.98142 66.0898C14.5866 71.478 20.0137 75.9383 25.9642 79.8116C32.1365 83.8291 38.7092 86.9723 45.7577 89.1493C47.498 89.6865 49.2859 90.012 51.0715 90.3491C51.4532 90.4209 51.8686 90.4899 52.1319 90.1035C52.3482 89.7868 52.263 89.4595 52.1192 89.1581C51.9649 88.8353 51.748 88.5453 51.5174 88.2697C50.3336 86.8561 49.469 85.2618 48.741 83.5835C47.8836 81.6055 48.1911 79.4241 51.0195 78.6963C58.396 76.7971 64.508 72.7665 69.5076 67.1306C76.7021 59.0195 80.0643 49.4773 79.4945 38.7222C78.8905 27.3259 74.2206 17.7245 65.5048 10.2174C57.8954 3.66394 49.0524 0.54808 39.1888 0.54808C38.213 0.54808 37.2284 0.578773 36.2327 0.639063Z" fill="white"/>
</mask>
<g mask="url(#mask0)">
<path d="M82.3217 -2.19234L82.32 38.0727L70.9252 37.9876L70.809 37.987C68.1145 37.987 65.4692 38.7094 63.1525 40.0796L60.3718 41.7255L57.4737 38.4907C57.2403 38.2315 56.9792 37.9958 56.6954 37.7897C55.6228 37.0098 54.3085 36.6913 52.9947 36.8919C51.6803 37.0925 50.5231 37.7881 49.7365 38.8508L47.9188 41.3062L45.466 32.4327C45.0357 30.8734 43.7811 29.6786 42.189 29.3152C41.0373 29.0543 39.8513 29.2505 38.849 29.8726C37.8466 30.4941 37.1497 31.4653 36.8847 32.6065L34.6726 42.1388L33.3106 36.0846C32.9184 34.3455 31.6052 32.9468 29.8843 32.4355C28.6092 32.0556 27.2634 32.1905 26.0929 32.8153C24.9218 33.4395 24.0661 34.4776 23.6833 35.7399L22.0603 41.093L20.9832 37.8653C20.3067 35.8413 18.4077 34.482 16.2564 34.482H13.2759C11.7486 34.482 10.5101 35.7086 10.5101 37.2224C10.5101 38.7362 11.7486 39.9629 13.2759 39.9629H15.8565L19.0106 49.4129C19.5859 51.1323 21.4673 52.0706 23.2053 51.5006C24.2315 51.1641 25.0297 50.3496 25.34 49.3247L28.3719 39.3254L31.3994 52.7809C31.5925 53.6381 32.1103 54.3698 32.8593 54.8412C33.3975 55.1804 34.0093 55.3547 34.6327 55.3547C34.875 55.3547 35.1201 55.3284 35.3624 55.2747C36.6003 55.0007 37.5861 54.0322 37.8737 52.8023L41.2912 38.078L43.1892 44.9422C43.5006 46.0718 44.2385 47.0134 45.2652 47.5938C46.2919 48.1732 47.4851 48.3217 48.6252 48.0137C49.5844 47.7539 50.4368 47.1724 51.0254 46.3776L53.7923 42.6392L56.2351 45.3648C57.9981 47.3297 60.9288 47.778 63.2073 46.4308L65.9881 44.7855C67.4673 43.9102 69.1318 43.4563 70.8826 43.4684L82.32 43.5536L82.3217 93.1454H-2.76593V-2.19234H82.3217Z" fill="#00BF69"/>
</g>
</svg>
