<svg width="26" height="26" viewBox="0 0 26 26" fill="none" xmlns="http://www.w3.org/2000/svg">
<g clip-path="url(#clip0)">
<path d="M2.60007 0.866664L3.03687 0.117864C2.90516 0.0410075 2.7555 0.000263262 2.60301 -0.000254404C2.45051 -0.000772071 2.30059 0.0389551 2.16836 0.114916C2.03613 0.190876 1.92628 0.300381 1.84991 0.432373C1.77354 0.564365 1.73335 0.714171 1.7334 0.866664H2.60007ZM2.60007 25.1333H1.7334C1.73335 25.2858 1.77354 25.4356 1.84991 25.5676C1.92628 25.6996 2.03613 25.8091 2.16836 25.8851C2.30059 25.961 2.45051 26.0008 2.60301 26.0002C2.7555 25.9997 2.90516 25.959 3.03687 25.8821L2.60007 25.1333ZM23.4001 13L23.8369 13.7488C23.9678 13.6725 24.0764 13.5632 24.1519 13.4318C24.2274 13.3004 24.2672 13.1515 24.2672 13C24.2672 12.8485 24.2274 12.6996 24.1519 12.5682C24.0764 12.4368 23.9678 12.3275 23.8369 12.2512L23.4001 13ZM1.7334 0.866664V25.1333H3.46673V0.866664H1.7334ZM3.03687 25.8821L23.8369 13.7488L22.9633 12.2512L2.16327 24.3845L3.03687 25.8821ZM23.8369 12.2512L3.03687 0.117864L2.16327 1.61546L22.9633 13.7488L23.8369 12.2512ZM3.17033 22.3184L17.037 10.1851L15.8965 8.8816L2.0298 21.0149L3.17033 22.3184ZM2.0298 4.98506L15.8965 17.1184L17.037 15.8149L3.17033 3.6816L2.0298 4.98506Z" fill="white"/>
</g>
<defs>
<clipPath id="clip0">
<rect width="26" height="26" fill="white"/>
</clipPath>
</defs>
</svg>
