<svg width="21" height="21" viewBox="0 0 21 21" fill="none" xmlns="http://www.w3.org/2000/svg">
<path d="M10.0625 0.4375C4.50566 0.4375 0 4.94316 0 10.5C0 16.0568 4.50566 20.5625 10.0625 20.5625C15.6193 20.5625 20.125 16.0568 20.125 10.5C20.125 4.94316 15.6193 0.4375 10.0625 0.4375ZM14.8983 8.02256C14.9051 8.12813 14.9051 8.23818 14.9051 8.346C14.9051 11.6433 12.3939 15.4414 7.80518 15.4414C6.39014 15.4414 5.07842 15.0304 3.97334 14.3229C4.17549 14.3453 4.36865 14.3543 4.57529 14.3543C5.74326 14.3543 6.81689 13.959 7.67266 13.2896C6.57656 13.2672 5.65566 12.5484 5.34121 11.5602C5.72529 11.6163 6.07119 11.6163 6.4665 11.5152C5.90212 11.4006 5.39484 11.0941 5.03084 10.6478C4.66684 10.2015 4.46857 9.64291 4.46973 9.06699V9.03555C4.7999 9.22197 5.18848 9.33652 5.59502 9.35225C5.25326 9.12448 4.97298 8.8159 4.77904 8.45388C4.5851 8.09185 4.48348 7.68756 4.4832 7.27686C4.4832 6.81191 4.60449 6.3874 4.82236 6.01904C5.4488 6.79021 6.23051 7.42092 7.11667 7.8702C8.00283 8.31947 8.97361 8.57724 9.96592 8.62676C9.61328 6.93096 10.8801 5.55859 12.4029 5.55859C13.1217 5.55859 13.7686 5.85957 14.2245 6.34473C14.7883 6.23916 15.3273 6.02803 15.808 5.74502C15.6216 6.32227 15.2308 6.80967 14.7119 7.11738C15.215 7.06348 15.7002 6.92422 16.1494 6.72881C15.8103 7.22744 15.3857 7.66992 14.8983 8.02256Z" fill="#D5D5D5"/>
</svg>
